<?xml version="1.0" encoding="utf-8"?>
<!-- Generator: Adobe Illustrator 25.2.0, SVG Export Plug-In . SVG Version: 6.00 Build 0)  -->
<svg version="1.1" xmlns="http://www.w3.org/2000/svg" xmlns:xlink="http://www.w3.org/1999/xlink" x="0px" y="0px"
	 viewBox="0 0 750 500" style="enable-background:new 0 0 750 500;" xml:space="preserve">
<style type="text/css">
	.st0{clip-path:url(#SVGID_2_);fill:#FFB539;}
	.st1{opacity:0.51;clip-path:url(#SVGID_2_);fill:#F75C00;}
	.st2{opacity:0.2;clip-path:url(#SVGID_2_);fill:#F75C00;}
	.st3{opacity:0.34;clip-path:url(#SVGID_4_);fill:#FCBE99;}
	.st4{opacity:0.6;clip-path:url(#SVGID_4_);fill:#FCBE99;}
	.st5{fill:#F75C00;}
	.st6{opacity:0.25;fill:#FCBE99;}
	.st7{opacity:0.61;fill:#FFFFFF;}
	.st8{fill:#E84700;}
	.st9{opacity:0.32;fill:#606060;}
	.st10{opacity:0.3;fill:#606060;}
	.st11{opacity:0.6;fill:#FCBE99;}
	.st12{fill:#313F5E;}
	.st13{opacity:0.43;fill:#313F5E;}
	.st14{opacity:0.43;}
	.st15{fill:none;stroke:#5A657E;stroke-width:2.6344;stroke-linecap:round;stroke-miterlimit:10;}
	.st16{opacity:0.21;fill:#313F5E;}
	.st17{opacity:0.61;}
	.st18{fill:#FFFFFF;}
	.st19{fill:#44291C;}
	.st20{opacity:0.3;fill:#44291C;}
	.st21{fill:none;stroke:#44291C;stroke-width:7.5774;stroke-linecap:round;stroke-miterlimit:10;}
	.st22{fill:#5B3725;}
	.st23{fill:none;stroke:#5B3725;stroke-width:7.5774;stroke-linecap:round;stroke-miterlimit:10;}
	.st24{opacity:0.3;fill:#5B3725;}
	.st25{opacity:0.29;fill:#5B3725;}
	.st26{fill:none;stroke:#5B3725;stroke-width:5.9054;stroke-miterlimit:10;}
	.st27{fill:#FFB539;}
	.st28{fill:#F7671E;}
	.st29{opacity:0.51;fill:#FFB539;}
	.st30{opacity:0.45;fill:#F75C00;}
	.st31{opacity:0.51;}
	.st32{opacity:0.42;fill:#FFB539;}
	.st33{fill:none;}
</style>
<g id="BACKGROUND">
	<g>
		<defs>
			<rect id="SVGID_1_" width="750" height="500"/>
		</defs>
		<clipPath id="SVGID_2_">
			<use xlink:href="#SVGID_1_"  style="overflow:visible;"/>
		</clipPath>
		<rect class="st0" width="750" height="500"/>
		<path class="st1" d="M967-78.7h-24.2h-48.3H590.1h-22.4H263.3H215h-24.2h-24.2v59.8c0,4.3,3.4,7.9,7.6,7.9c9,0,16.4,7.2,16.4,16.3
			l0.1,31.7c0,6.6,5.1,12.4,11.7,12.6c6.8,0.2,12.5-5.3,12.5-12.1V-2.2c0-8.8,7.2-16,16-16h15.9c8.8,0,16,7.2,16,16h0.4v67.9v145.4
			c0,3.6,2.9,6.5,6.5,6.5h2.5c3.6,0,6.5,2.9,6.5,6.5v9.5v10.8c0,13.3,10.8,24.2,24.2,24.2h0c13.3,0,24.2-10.8,24.2-24.2V241
			c0-9.6,7.8-17.5,17.5-17.5h9.7c9.6,0,17.5,7.8,17.5,17.5v17.2c0,5.8,4.7,10.4,10.4,10.4h26.9c5.8,0,10.1-4.8,10.2-10.6
			c0.1-3.6,3-6.4,6.5-6.4h0c3.6,0,6.5,2.9,6.5,6.5v21.1v18.4c0,3.6,2.9,6.5,6.5,6.5h0.1c3.6,0,6.5-2.9,6.5-6.5v-18.4v-8.2
			c0-3.4,2.5-6.5,5.9-6.8c3.9-0.4,7.2,2.7,7.2,6.5v8.5h0.1v32.5c0,7.3,5.9,13.1,13.1,13.1h0c7.3,0,13.1-5.9,13.1-13.1v-5.7
			c0-3.6,2.9-6.5,6.5-6.5h13.2c3.6,0,6.5,2.9,6.5,6.5v5.7c0,7.3,5.9,13.1,13.1,13.1c7.3,0,13.1-5.9,13.1-13.1v-9.4
			c0-7,5.3-13.1,12.3-13.6c7.7-0.5,14,5.6,14,13.1v32.7c0,7,5.3,13.1,12.3,13.6c1,0.1,1.9,0,2.8-0.1c0.9,0.1,1.8,0.2,2.8,0.1
			c7-0.5,12.3-6.6,12.3-13.6V302c0-7.5,6.4-13.6,14-13.1c7,0.5,12.3,6.6,12.3,13.6v9.4c0,7.3,5.9,13.1,13.1,13.1
			c7.3,0,13.1-5.9,13.1-13.1v-5.7c0-3.6,2.9-6.5,6.5-6.5h13.2c3.6,0,6.5,2.9,6.5,6.5v5.7c0,7.3,5.9,13.1,13.1,13.1h0
			c7.3,0,13.1-5.9,13.1-13.1v-32.5h0.1v-8.5c0-3.8,3.3-6.9,7.2-6.5c3.4,0.3,5.9,3.4,5.9,6.8v8.2v18.4c0,3.6,2.9,6.5,6.5,6.5h0.1
			c3.6,0,6.5-2.9,6.5-6.5v-18.4v-21.1c0-3.6,2.9-6.5,6.5-6.5h0c3.6,0,6.5,2.9,6.5,6.4c0.1,5.8,4.4,10.6,10.2,10.6h26.9
			c5.8,0,10.4-4.7,10.4-10.4V241c0-9.6,7.8-17.5,17.5-17.5h9.7c9.6,0,17.5,7.8,17.5,17.5v3.5c0,13.3,10.8,24.2,24.2,24.2h0
			c13.3,0,24.2-10.8,24.2-24.2v-10.8v-9.5c0-3.6,2.9-6.5,6.5-6.5h2.5c3.6,0,6.5-2.9,6.5-6.5V65.8V-2.2h0.4c0-8.8,7.2-16,16-16h15.9
			c8.8,0,16,7.2,16,16v39.7c0,6.8,5.6,12.3,12.5,12.1c6.6-0.2,11.7-5.9,11.7-12.6l0.1-31.7c0-9,7.4-16.3,16.4-16.3
			c4.3,0,7.6-3.6,7.6-7.9v-59.8H967z"/>
		<path class="st2" d="M358.7,540c-8.2,0-14.8-6.6-14.8-14.7l-0.1-28.8c0-6-4.6-11.2-10.6-11.4c-6.2-0.2-11.3,4.8-11.3,11v36
			c0,8-6.5,14.5-14.5,14.5h-14.4c-8,0-14.5-6.5-14.5-14.5h-0.3v-61.5V338.8c0-3.3-2.7-5.9-5.9-5.9h-2.2c-3.3,0-5.9-2.7-5.9-5.9v-8.6
			v-9.8c0-12.1-9.8-21.9-21.9-21.9h0c-12.1,0-21.9,9.8-21.9,21.9v3.2c0,8.7-7.1,15.8-15.8,15.8h-8.8c-8.7,0-15.8-7.1-15.8-15.8
			v-15.6c0-5.2-4.2-9.5-9.5-9.5h-24.4c-5.2,0-9.1,4.3-9.2,9.6c-0.1,3.2-2.7,5.8-5.9,5.8h0c-3.3,0-5.9-2.7-5.9-5.9v-19.1v-16.6
			c0-3.3-2.7-5.9-5.9-5.9h0c-3.3,0-5.9,2.7-5.9,5.9v16.6v7.4c0,3.1-2.3,5.9-5.3,6.2c-3.5,0.3-6.5-2.4-6.5-5.9v-7.7h0v-29.4
			c0-6.6-5.3-11.9-11.9-11.9h0c-6.6,0-11.9,5.3-11.9,11.9v5.2c0,3.3-2.7,5.9-5.9,5.9h-12c-3.3,0-5.9-2.7-5.9-5.9v-5.2
			c0-6.6-5.3-11.9-11.9-11.9l0,0c-6.6,0-11.9,5.3-11.9,11.9v8.5c0,6.3-4.8,11.9-11.1,12.3c-6.9,0.4-12.7-5-12.7-11.9V227
			c0-6.3-4.8-11.9-11.1-12.3c-6.9-0.4-12.7,5-12.7,11.9v374.8h296.1h43.8h21.9h21.9v-54.2C365.6,543.3,362.5,539.9,358.7,540z"/>
	</g>
</g>
<g id="OBJECTS">
	<g>
		<g>
			<defs>
				<rect id="SVGID_3_" x="82.1" y="44.7" width="590.6" height="397"/>
			</defs>
			<use xlink:href="#SVGID_3_"  style="overflow:visible;fill:#FFFFFF;"/>
			<clipPath id="SVGID_4_">
				<use xlink:href="#SVGID_3_"  style="overflow:visible;"/>
			</clipPath>
			<rect x="82.1" y="44.7" class="st3" width="590.6" height="397"/>
			<path class="st4" d="M648.8,428.8H121.9c-6.9,0-10.1-12.8-4.9-19.6l6.6-8.6c6.9-9,15.6-13.9,24.7-13.9h483.3
				c6.9,0,13.5,4,18.5,11.1l5.1,7.4C661.1,413.9,657.1,428.8,648.8,428.8z"/>
		</g>
		<g>
			<g>
				<path class="st5" d="M409,104.9c4.7,0,8.5-3.8,8.5-8.5V44.6h-17.1v51.7C400.5,101,404.3,104.9,409,104.9z"/>
				<path class="st5" d="M347.6,131c7.9,0,14.4-6.4,14.4-14.4V43.3h-28.8v73.3C333.3,124.6,339.7,131,347.6,131z"/>
				<path class="st5" d="M382.4,74.7c2.4,0,4.3-1.9,4.3-4.3V44.6h-8.5v25.9C378.1,72.8,380.1,74.7,382.4,74.7z"/>
				<path class="st5" d="M472.1,120.5c-4.7,0-8.5,3.8-8.5,8.5v73.7c0,4.7,3.8,8.5,8.5,8.5c4.7,0,8.5-3.8,8.5-8.5v-73.7
					C480.7,124.3,476.9,120.5,472.1,120.5z"/>
				<path class="st5" d="M424.9,150.2c2.4,0,4.3-1.9,4.3-4.3v-36.8c0-2.4-1.9-4.3-4.3-4.3c-2.4,0-4.3,1.9-4.3,4.3v36.8
					C420.6,148.3,422.6,150.2,424.9,150.2z"/>
				<path class="st5" d="M429.2,92.5c6.4,0,11.6,5.1,11.6,11.5l0.1,22.5c0,4.7,3.6,8.8,8.3,8.9c4.8,0.1,8.8-3.7,8.8-8.6V98.7
					c0-6.3,5.1-11.3,11.3-11.3h11.3c6.3,0,11.3,5.1,11.3,11.3h0.3v48.1v102.8c0,2.6,2.1,4.6,4.6,4.6h1.7c2.6,0,4.6,2.1,4.6,4.6v6.7
					v7.6c0,9.4,7.7,17.1,17.1,17.1h0c9.4,0,17.1-7.7,17.1-17.1v-2.5c0-6.8,5.5-12.4,12.4-12.4h6.9c6.8,0,12.4,5.5,12.4,12.4v12.2
					c0,4.1,3.3,7.4,7.4,7.4h19c4.1,0,7.1-3.4,7.2-7.5c0.1-2.5,2.1-4.5,4.6-4.5h0c2.6,0,4.6,2.1,4.6,4.6v14.9v13
					c0,2.6,2.1,4.6,4.6,4.6h0c2.6,0,4.6-2.1,4.6-4.6v-13V292c0-2.4,1.8-4.6,4.2-4.8c2.8-0.3,5.1,1.9,5.1,4.6v6h0v23
					c0,5.1,4.2,9.3,9.3,9.3h0c5.1,0,9.3-4.2,9.3-9.3v-4c0-2.6,2.1-4.6,4.6-4.6h9.3c2.6,0,4.6,2.1,4.6,4.6v4c0,5.1,4.2,9.3,9.3,9.3
					l0,0c5.1,0,9.3-4.2,9.3-9.3v-6.6c0-5,3.7-9.3,8.7-9.6c5.4-0.4,9.9,3.9,9.9,9.3v23.1c0,5,3.7,9.3,8.7,9.6
					c5.4,0.4,9.9-3.9,9.9-9.3V44.6H492.2H458h-17.1h-17.1v42.3C423.8,89.9,426.2,92.5,429.2,92.5z"/>
				<path class="st6" d="M607.1,168.5L607.1,168.5c-9.8,0-18.7,4.1-25.1,10.7c-2.8,2.9-7.8,0.9-7.8-3.2v0
					c0-24.2-19.6-43.8-43.8-43.8l0,0c-24.2,0-43.8,19.6-43.8,43.8v53.7c0-14.8-12.3-26.8-27.2-26.2c-5.1,0.2-9.8,1.9-13.7,4.6
					c-3.8,2.7-9.1,0.1-9.1-4.6v-0.2c0-19.2-15.6-34.8-34.8-34.8l0,0c-9.8,0-18.7,4.1-25.1,10.7c-2.8,2.9-7.8,0.9-7.8-3.2v0
					c0-24.2-19.6-43.8-43.8-43.8h0c-24.2,0-43.8,19.6-43.8,43.8v53.7c0-14.8-12.3-26.8-27.2-26.2c-14.2,0.5-25.3,12.6-25.3,26.9
					v133.1c0,13.2,10.7,23.8,23.8,23.8h28.7H367h2h65.3h2.5h50h85.6h2h35.7c17.7,0,32.1-14.4,32.1-32.1V203.3
					C641.9,184.1,626.3,168.5,607.1,168.5z"/>
				<path class="st7" d="M708.4,341.4L708.4,341.4c-0.9,0-1.6-1.5-1.6-3.3L708,312l2.1,26.1C710,340,709.3,341.4,708.4,341.4z"/>
				<path class="st7" d="M466.4,206L466.4,206c-0.9,0-1.6-1.5-1.6-3.3l1.2-26.1l2.1,26.1C468,204.5,467.3,206,466.4,206z"/>
				<path class="st7" d="M635.3,323.1L635.3,323.1c-0.9,0-1.6-1.5-1.6-3.3l1.2-26.1l2.1,26.1C637,321.6,636.2,323.1,635.3,323.1z"/>
				<path class="st7" d="M494.6,248.5L494.6,248.5c-0.8,0-1.4-1.2-1.4-2.7l1-21.8l1.7,21.8C496,247.3,495.4,248.5,494.6,248.5z"/>
				<path class="st7" d="M446.1,128.6L446.1,128.6c-0.9,0-1.6-1.5-1.6-3.3l1.2-26.1l2.1,26.1C447.7,127.1,447,128.6,446.1,128.6z"/>
			</g>
		</g>
		<path class="st8" d="M628.2,400.4c-2.2-0.3-4.5-0.1-6.7-0.1c-7,0-14,0-21,0c-14,0-28,0-42.1,0c0.1-0.3,0.4-5.9-0.7-5.2
			c1.1-0.6,1.8-1.8,1.6-3.2c-0.2-1.6-1.7-2.8-3.3-2.8H476c-1.3,0-2.6,0.6-3.3,1.8c-0.6,0.9-0.5,1.7-0.3,2.4
			c-8.2,0-16.5-0.5-24.7-0.6c-6.7-0.1-15.3-1.1-21.6,1.3c-5.1,2-4.7,9.4,1.3,9.4h67.5c2.3,0,4.1,1.9,4.1,4.3c0,0,0,0,0,0v6.8
			c0,4.1,3.3,7.4,7.4,7.4c20.3,0,40.7,0,61,0c11.9,0,23.8,0,35.7,0c4.6,0,9.3,0,13.9,0c4.5,0,11.5,1.3,15.3-1.3
			C639.1,415.7,636.5,401.6,628.2,400.4z"/>
		<path class="st7" d="M505.8,416.2L505.8,416.2c0-0.9,1.5-1.6,3.3-1.6l26.1,1.2l-26.1,2.1C507.3,417.9,505.8,417.1,505.8,416.2z"/>
		<path class="st7" d="M475.1,392.9L475.1,392.9c0-0.9,1.5-1.6,3.3-1.6l26.1,1.2l-26.1,2.1C476.6,394.5,475.1,393.8,475.1,392.9z"/>
		<path class="st9" d="M555.2,398.3l14-10.3c1.1-0.8,1.7-2.1,1.7-3.4l0,0c0-2.4-1.9-4.3-4.3-4.3l-19.1,0.1L555.2,398.3z"/>
		<path class="st10" d="M544.7,225.5v45.4h1.8l-1.7,81.8c-0.1,2.4-2.1,4.4-4.5,4.4h-31.8c-5.8,0-10.4,4.7-10.4,10.4v15.6h5.9v-15.6
			c0-2.5,2-4.5,4.5-4.5h31.8c5.6,0,10.3-4.6,10.4-10.2l1.7-82.2c1.6-0.6,2.8-2.1,2.8-4v-35.5c0-3.2-2.6-5.7-5.7-5.7H544.7z"/>
		<g>
			<polygon class="st11" points="464.8,407.1 354,406.4 366.1,394.3 452.1,394.3 			"/>
			<g>
				<g>
					<path class="st12" d="M365.2,167.7l0.9,67.4c0,1.4,12,4.2,26.8,4.2c14.8,0,26.8-2.9,26.8-4.2l0.9-67.4H365.2z"/>
					<path class="st12" d="M420.6,171.2h-55.5c-1,0-1.8-0.8-1.8-1.8l0,0c0-1,0.8-1.8,1.8-1.8h55.5c1,0,1.8,0.8,1.8,1.8l0,0
						C422.3,170.4,421.5,171.2,420.6,171.2z"/>
					<path class="st13" d="M384.5,224.2c-6.8,2.8-13.4,2.1-18.4,0.5v10.3c0,1.4,12,4.2,26.8,4.2c14.8,0,26.8-2.9,26.8-4.2l0.7-59.5
						C416.6,193.6,406.7,215.1,384.5,224.2z"/>
					<path class="st5" d="M385.8,167.4L385.8,167.4l-13.2,0h-0.7l0,0c-1.3,0-2.4,1.1-2.4,2.4v5.7c0,0.8,0.5,1.5,1.3,1.6
						c1,0.2,1.8-0.6,1.8-1.6v-1.2c0-3.1,2.7-5.5,5.7-5.1c0.1,0,0.2,0,0.3,0c4.1,0.6,7.2,4.3,7.2,8.4c0,2.4,0,5.1,0,6.8
						c0,1.8,1.4,3.4,3.2,3.5c1.9,0.1,3.5-1.4,3.5-3.3l0-10.5c0-0.8,0.5-1.5,1.2-1.8c0.2-0.1,0.5-0.1,0.7-0.1c0.5,0,1,0.2,1.4,0.4
						c0.5,0.3,0.7,0.9,0.7,1.5v15.8c0,1,0.7,1.9,1.7,2.2l0,0c1.3,0.4,2.3,1.6,2.3,3c0,2.3,0,5.6,0,7.8c0,2,1.5,3.9,3.5,4.1
						c2.3,0.2,4.3-1.6,4.3-3.9v-31c0-1,0.8-1.7,1.7-1.7l0,0c0.1,0,0.3,0,0.4,0c0.9,0.1,1.5,0.9,1.5,1.8c0,2.4,0,8.5,0,11.5
						c0,1.8,1.4,3.4,3.2,3.5c1.9,0.1,3.5-1.4,3.5-3.3v-13.7c0-1.6-1.3-2.9-2.9-2.9L385.8,167.4z"/>
					<path class="st7" d="M402.6,205L402.6,205c-0.7,0-1.2-0.6-1.2-1.2l0.7-15.7l1.7,15.7C403.9,204.5,403.3,205,402.6,205z"/>
					<path class="st7" d="M413.3,185.1L413.3,185.1c-0.3,0-0.6-0.3-0.6-0.6l0.4-7.9l0.9,7.9C414,184.9,413.7,185.1,413.3,185.1z"/>
					<path class="st7" d="M397.7,191.5L397.7,191.5c-0.4,0-0.7-0.3-0.7-0.7l0.4-8.7l1,8.7C398.4,191.2,398.1,191.5,397.7,191.5z"/>
					<path class="st7" d="M387.2,186L387.2,186c-0.4,0-0.7-0.3-0.7-0.7l0.4-8.7l1,8.7C387.8,185.7,387.5,186,387.2,186z"/>
					<path class="st7" d="M370,175.9L370,175.9c-0.2,0-0.3-0.2-0.3-0.3l0.2-4.3l0.5,4.3C370.4,175.8,370.2,175.9,370,175.9z"/>
					<g class="st14">
						<path class="st12" d="M419.7,211.8c-1.2,2.5-2.7,4.8-4.5,6.8c-4.6,5.1-10.7,7.9-18.1,8.2c-11,0.4-19.7-2.6-25.8-9.1
							c-2.1-2.2-3.7-4.6-5.1-7.2v5.1c0.9,1.4,2,2.7,3.2,3.9c6.3,6.6,14.9,10,25.7,10c0.7,0,1.4,0,2.2,0c8.2-0.3,14.9-3.4,20-9.1
							c0.9-1,1.8-2.2,2.5-3.3V211.8z"/>
						<path class="st12" d="M418.5,180.7c0,0.7,0.5,1.2,1.2,1.3v-2.6C419,179.4,418.5,180,418.5,180.7z"/>
						<path class="st12" d="M366.1,181.7c0.3-0.2,0.5-0.6,0.5-1c0-0.4-0.2-0.8-0.5-1V181.7z"/>
					</g>
					<path class="st15" d="M364.4,178.2h-5c0,0-4.7,49.2,37.7,47.5c32.9-1.3,29.2-47.5,29.2-47.5h-4.6"/>
					<polygon class="st16" points="420.5,171.9 420.6,171 365.2,171 365.3,171.9 					"/>
					<g class="st17">
						<path class="st18" d="M371.6,168l13.1,0.3l-13.1,0.7c-0.3,0-0.5-0.2-0.5-0.4C371.1,168.2,371.3,168,371.6,168
							C371.6,168,371.6,168,371.6,168z"/>
					</g>
					<path class="st5" d="M369.5,169.8v1.4h4.3c1.1-1.4,2.8-2.2,4.6-1.9c0.1,0,0.2,0,0.3,0c1.6,0.2,3,0.9,4.2,1.9h25.9
						c0.3-0.5,0.8-0.8,1.4-0.8c0.1,0,0.3,0,0.4,0c0.5,0.1,0.9,0.4,1.1,0.7h7v-1c0-1.1-0.6-2.1-1.6-2.6h-46.4
						C370,168.1,369.5,168.9,369.5,169.8z"/>
				</g>
				<g>
					<g>
						<path class="st19" d="M458.6,301.2h-99c-1.9,0-3.4-1.5-3.4-3.4v-0.2c0-1.9,1.5-3.4,3.4-3.4h99c1.9,0,3.4,1.5,3.4,3.4v0.2
							C462,299.7,460.5,301.2,458.6,301.2z"/>
						<path class="st20" d="M458.7,298.8h-99.2c-1.4,0-2.6-1-3.1-2.3c-0.1,0.4-0.2,0.8-0.2,1.2c0,1.9,1.5,3.5,3.3,3.5h99.2
							c1.8,0,3.3-1.6,3.3-3.5c0-0.4-0.1-0.8-0.2-1.2C461.3,297.9,460.1,298.8,458.7,298.8z"/>
					</g>
					<g>
						<path class="st19" d="M456.6,358.7h-96.9c-1.8,0-3.3-1.5-3.3-3.3v-0.3c0-1.8,1.5-3.3,3.3-3.3h96.9c1.8,0,3.3,1.5,3.3,3.3v0.3
							C460,357.2,458.5,358.7,456.6,358.7z"/>
						<path class="st20" d="M456.8,356.3h-97.2c-1.4,0-2.5-1-3-2.3c-0.1,0.4-0.2,0.8-0.2,1.2c0,1.9,1.4,3.5,3.2,3.5h97.2
							c1.8,0,3.2-1.6,3.2-3.5c0-0.4-0.1-0.8-0.2-1.2C459.3,355.4,458.2,356.3,456.8,356.3z"/>
					</g>
					<line class="st21" x1="434.9" y1="242.8" x2="452.1" y2="394.3"/>
					<line class="st21" x1="366.1" y1="394.3" x2="383.2" y2="242.8"/>
					<path class="st22" d="M460.4,249.7H357.9c-2.8,0-5-2.2-5-5v-3.8c0-2.8,2.2-5,5-5h102.5c2.8,0,5,2.2,5,5v3.8
						C465.4,247.5,463.2,249.7,460.4,249.7z"/>
					<line class="st23" x1="463.5" y1="403.7" x2="446.4" y2="242.8"/>
					<line class="st23" x1="354.3" y1="403.7" x2="371.4" y2="242.8"/>
					<g>
						<path class="st22" d="M465.4,370.2c0-1.1-0.8-2-1.9-2.1l0.4,4.2C464.8,371.9,465.4,371.2,465.4,370.2z"/>
						<path class="st22" d="M455.9,368.1h7.3c0.1,0,0.2,0,0.3,0l-6.4-60h-7.6L455.9,368.1z"/>
						<polygon class="st22" points="449.1,303.8 456.7,303.8 451.7,256.7 444.1,256.7 						"/>
						<path class="st22" d="M467.3,403.3l-3.3-31.1c-0.2,0.1-0.5,0.1-0.7,0.1h-6.9l3.4,31.8c0.2,1.9,1.8,3.4,3.8,3.4
							c0.1,0,0.3,0,0.4,0C466,407.3,467.5,405.4,467.3,403.3z"/>
						<polygon class="st22" points="451.7,256.7 451,249.7 443.3,249.7 444.1,256.7 						"/>
						<polygon class="st22" points="440.3,256.7 439.5,249.7 431.9,249.7 432.7,256.7 						"/>
						<polygon class="st22" points="449.5,308.1 457.2,308.1 456.7,303.8 449.1,303.8 						"/>
						<path class="st22" d="M464,372.2l-0.4-4.2c-0.1,0-0.2,0-0.3,0h-7.3l0.5,4.3h6.9C463.5,372.4,463.8,372.3,464,372.2z"/>
						<path class="st22" d="M375.2,243.2c0.2-2.1-1.3-3.9-3.4-4.2c-2.1-0.2-3.9,1.3-4.2,3.4l-0.8,7.3h7.6L375.2,243.2z"/>
						<path class="st22" d="M361.9,368.1l6.4-60h-7.6l-6.4,60.2c0.3-0.1,0.5-0.2,0.8-0.2H361.9z"/>
						<polygon class="st22" points="373.7,256.7 366.1,256.7 361.1,303.8 368.7,303.8 						"/>
						<path class="st22" d="M353.8,372l-3.3,31.4c-0.2,2.1,1.3,3.9,3.4,4.2c0.1,0,0.3,0,0.4,0c1.9,0,3.6-1.4,3.8-3.4l3.4-31.8h-6.3
							C354.6,372.4,354.2,372.2,353.8,372z"/>
						<polygon class="st22" points="374.5,249.7 366.8,249.7 366.1,256.7 373.7,256.7 						"/>
						<polygon class="st22" points="386.2,249.7 378.6,249.7 377.9,256.7 385.5,256.7 						"/>
						<polygon class="st22" points="368.7,303.8 361.1,303.8 360.6,308.1 368.3,308.1 						"/>
						<path class="st22" d="M355.1,368.1c-0.3,0-0.6,0.1-0.8,0.2l-0.4,3.7c0.4,0.3,0.8,0.4,1.2,0.4h6.3l0.5-4.3H355.1z"/>
					</g>
					<g>
						<path class="st22" d="M462,305H356.4c-1.9,0-3.5-1.6-3.5-3.5l0,0c0-1.9,1.6-3.5,3.5-3.5H462c1.9,0,3.5,1.6,3.5,3.5l0,0
							C465.4,303.4,463.9,305,462,305z"/>
						<path class="st24" d="M462,302.6H356.4c-1.5,0-2.8-1-3.2-2.3c-0.1,0.4-0.2,0.8-0.2,1.2c0,1.9,1.6,3.5,3.5,3.5H462
							c1.9,0,3.5-1.6,3.5-3.5c0-0.4-0.1-0.8-0.2-1.2C464.7,301.7,463.5,302.6,462,302.6z"/>
					</g>
					<path class="st25" d="M460.4,246H357.9c-2.8,0-5-2.2-5-5v3.8c0,2.8,2.2,5,5,5h102.5c2.8,0,5-2.2,5-5v-3.8
						C465.4,243.7,463.2,246,460.4,246z"/>
					<g>
						<path class="st22" d="M462,369.3H356.4c-1.9,0-3.5-1.6-3.5-3.5l0,0c0-1.9,1.6-3.5,3.5-3.5H462c1.9,0,3.5,1.6,3.5,3.5l0,0
							C465.4,367.7,463.9,369.3,462,369.3z"/>
						<path class="st24" d="M465.2,364.5c-0.5,1.3-1.8,2.2-3.2,2.2H356.4c-1.5,0-2.7-0.9-3.2-2.2c-0.2,0.4-0.2,0.8-0.2,1.3
							c0,1.9,1.6,3.5,3.5,3.5H462c1.9,0,3.5-1.6,3.5-3.5C465.4,365.4,465.3,364.9,465.2,364.5z"/>
					</g>
				</g>
			</g>
		</g>
		<g>
			<path class="st5" d="M431,235.1h-23.3c-0.8,0-1.5,0.7-1.5,1.5c0,0.2,0,0.3,0.1,0.5c-0.1,0.1-0.1,0.2-0.1,0.3v1.6
				c0,0.2,0.2,0.4,0.4,0.5c0.6,0.1,0.5-0.7,0.5-1.1c0-0.2,0.1-0.3,0.2-0.4c0.1,0,0.2,0,0.3,0c0.7,0,1.4,0,2.2,0
				c0.5,0,0.6,0.1,0.8,0.5c0.2,0.4,0.3,0.8,0.3,1.2c0,0.7,0,1.5,0,2c0,0.5,0.4,1,0.9,1c0.6,0,1-0.4,1-1v-3c0-0.2,0.1-0.4,0.4-0.5
				c0.1,0,0.1,0,0.2,0c0.2,0,0.3,0,0.4,0.1c0.1,0.1,0.2,0.3,0.2,0.4v4.6c0,0.3,0.2,0.6,0.5,0.6c0.4,0.1,0.7,0.5,0.7,0.9
				c0,0.7,0,1.6,0,2.2c0,0.6,0.4,1.1,1,1.2c0.7,0.1,1.2-0.5,1.2-1.1c0-1.6,0-3.2,0-4.9c0-0.7,0-1.5,0-2.2c0-0.4-0.2-1.8,0.2-2
				c0.2,0,0.4-0.1,0.5,0c0.1,0,0.2,0,0.2,0.1c0.3,0.2,0.1,0.7,0.1,1c0,0.8,0,1.6,0,2.4c0,0.5,0.4,1,0.9,1c0.6,0,1-0.4,1-1v-1.8
				c0-0.9,0.7-1.7,1.7-1.7h8.8c0.8,0,1.5-0.7,1.5-1.5C432.4,235.7,431.8,235.1,431,235.1z"/>
			<path class="st7" d="M415.8,247L415.8,247c-0.2,0-0.4-0.2-0.4-0.4l0.2-4.5l0.5,4.5C416.2,246.8,416,247,415.8,247z"/>
			<path class="st7" d="M414.4,243.1L414.4,243.1c-0.1,0-0.2-0.1-0.2-0.2l0.1-2.5l0.3,2.5C414.6,243,414.5,243.1,414.4,243.1z"/>
			<path class="st7" d="M411.4,241.5L411.4,241.5c-0.1,0-0.2-0.1-0.2-0.2l0.1-2.5l0.3,2.5C411.6,241.4,411.5,241.5,411.4,241.5z"/>
			<path class="st7" d="M406.4,238.6L406.4,238.6C406.4,238.6,406.3,238.5,406.4,238.6l0-1.4L406.4,238.6
				C406.5,238.5,406.5,238.6,406.4,238.6z"/>
		</g>
		<g>
			<path class="st26" d="M509,388.2l-17.2,0c-4,0-6.8-3.3-6.3-7.3l1.6-13.1c0.5-4.1,4.1-7.3,8.1-7.3l29,0c4,0,7.6-3.3,8.1-7.3
				l15.3-124"/>
			<g>
				<g>
					<path class="st27" d="M556.6,377.2c0,0-57.1-0.1-57.2-0.1c-2.1-0.3-4.3,4.3-5,10.2c-0.5,4.1-0.1,7.7,0.8,9.6
						c0.3,0.9,0.9,1.4,1.9,1.5l57.4-0.1c1.8-0.2,3.2-2.6,3.5-5.3l0.3-10.7C558.7,379.4,559.3,377.2,556.6,377.2z"/>
					<path class="st28" d="M556.6,377.2c0,0-15.9,0-30.9-0.1c-1.7,0-3,1.3-3,3l0,0c0,1.7-1.3,3-3,3h-24.5c-0.3,1.2-0.6,2.6-0.8,4.1
						c-0.1,0.9-0.2,1.9-0.2,2.8h28.2c2.9,0,5.5,1.5,7,3.9c1.7,2.7,4.6,4.4,7.8,4.4l17.3,0c1.8-0.2,3.2-2.6,3.5-5.3l0.3-10.7
						C558.7,379.4,559.3,377.2,556.6,377.2z"/>
					<path class="st29" d="M552.6,393.5l-53.1,0c-2.7,0-4.6-2.2-4.3-5l-0.6,4.8c-0.3,2.7,1.6,5,4.3,5l53.1,0c2.7,0,5.2-2.2,5.5-5
						l0.6-4.8C557.8,391.3,555.3,393.5,552.6,393.5z"/>
					<path class="st30" d="M494.4,390.4c0.7-5.9,1.1-10.2,5-10.2c0.1,0,57.2,0.1,57.2,0.1c1,0,1.6,0.3,1.8,0.9
						c0.3-2.3,0.6-4.1-1.8-4.1c0,0-57.1-0.1-57.2-0.1c-2.1-0.3-4.3,4.3-5,10.2c-0.2,1.8-0.3,3.5-0.2,5
						C494.3,391.7,494.3,391.1,494.4,390.4z"/>
				</g>
			</g>
			<g>
				<path class="st27" d="M543.1,271.8l-1.4,0c-3,0-5.1-2.5-4.8-5.5l5-40.2c0.4-3.1,3.1-5.5,6.1-5.5l1.4,0c3,0,5.1,2.5,4.8,5.5
					l-5,40.2C548.8,269.3,546.1,271.8,543.1,271.8z"/>
				<g class="st31">
					<path class="st32" d="M551.5,220.9l-4.8,39c-0.4,3.1-3.1,5.5-6.1,5.5l-1.4,0c-0.7,0-1.4-0.2-2-0.4l-0.1,1.2
						c-0.4,3.1,1.8,5.5,4.8,5.5l1.4,0c3,0,5.7-2.5,6.1-5.5l5-40.2C554.5,223.7,553.3,221.8,551.5,220.9z"/>
				</g>
			</g>
			<path class="st5" d="M559.6,388.2c-0.7,5.9-3,10.4-5,10.2c-2.1-0.3-3.1-5.2-2.4-11.1c0.7-5.9,3-10.4,5-10.2
				C559.2,377.4,560.3,382.3,559.6,388.2z"/>
			<path class="st22" d="M557.6,388c-0.2,1.9-1.2,3.4-2.1,3.2c-0.9-0.1-1.5-1.7-1.2-3.7c0.2-1.9,1.2-3.4,2.1-3.2
				C557.3,384.5,557.8,386.1,557.6,388z"/>
		</g>
	</g>
	<rect x="82.1" y="44.7" class="st33" width="590.6" height="398.3"/>
</g>
<g id="DESIGNED_BY_FREEPIK">
</g>
</svg>
