<svg id="Layer_1" enable-background="new 0 0 512.028 512.028" height="512" viewBox="0 0 512.028 512.028" width="512" xmlns="http://www.w3.org/2000/svg"><g><path d="m208.014 415.867c.104 4.476-3.475 8.2-8 8.2h-144c-13.23 0-24-10.77-24-24 0-214.132-.194-200.551.35-202.35l32-104c1.04-3.36 4.14-5.65 7.65-5.65h120c4.34 0 7.89 3.46 8 7.8.72 29.032-.523-20.713 8 320z" fill="#f1cc76"/><path d="m208.014 415.867c.104 4.476-3.475 8.2-8 8.2h-64c4.495 0 8.104-3.694 8-8.2v-320c-.11-4.34-3.66-7.8-8-7.8h56c4.34 0 7.89 3.46 8 7.8z" fill="#ebb15d"/><path d="m200.514 116.037-47.86 88.89c-6.36 11.81-18.63 19.14-32.04 19.14h-88.6v-24c0-1.79-1.835 4.753 32.35-106.35 1.04-3.36 4.14-5.65 7.65-5.65h120c4.34 0 7.89 3.46 8 7.8z" fill="#ebb15d"/><path d="m480.014 200.068v200c0 13.23-10.77 24-24 24h-256c-13.23 0-24-10.77-24-24v-304c0-5.585 5.554-9.397 10.72-7.52l288 104c3.17 1.14 5.28 4.15 5.28 7.52z" fill="#f1cc76"/><path d="m480.014 200.068v200c0 13.23-10.77 24-24 24h-48c13.23 0 24-10.77 24-24v-216c0-3.37-2.11-6.38-5.28-7.52l-244.47-88.28c3.476-.781-15.482-6.925 292.47 104.28 3.17 1.14 5.28 4.15 5.28 7.52z" fill="#ebb15d"/><path d="m184.014 88.068h-113.197c-7.009 0-13.44 3.53-17.204 9.444l-50.41 79.216c-8.6 13.513 1.128 31.34 17.203 31.34h100.207c7.513 0 14.393-4.109 17.954-10.724l52.491-97.483c2.859-5.31-.979-11.793-7.044-11.793z" fill="#faf0d3"/><path d="m191.054 99.858-52.49 97.49c-3.56 6.61-10.44 10.72-17.95 10.72h-48c7.51 0 14.39-4.11 17.95-10.72l52.49-97.49c2.87-5.312-.99-11.79-7.04-11.79h48c6.038 0 9.916 6.467 7.04 11.79z" fill="#f4e1a1"/><path d="m120.014 344.068h-16c-13.233 0-24 10.767-24 24v48c0 4.418 3.582 8 8 8h48c4.418 0 8-3.582 8-8v-48c0-13.234-10.767-24-24-24z" fill="#ebb19c"/><path d="m144.014 368.068v48c0 4.42-3.58 8-8 8h-24c4.42 0 8-3.58 8-8v-48c0-11.87-8.67-21.75-20-23.66 2.54-.449 2.552-.34 20-.34 13.23 0 24 10.77 24 24z" fill="#e58d72"/><path d="m416.014 312.068h-48c-13.233 0-24 10.767-24 24v24c0 13.233 10.767 24 24 24h48c13.233 0 24-10.767 24-24v-24c0-13.234-10.767-24-24-24z" fill="#ebb19c"/><path d="m440.014 336.068v24c0 13.23-10.77 24-24 24h-32c13.23 0 24-10.77 24-24v-24c0-13.23-10.77-24-24-24h32c13.23 0 24 10.77 24 24z" fill="#e58d72"/><g fill="#595965"><path d="m320.014 256.068h-96c-4.418 0-8-3.582-8-8s3.582-8 8-8h96c4.418 0 8 3.582 8 8s-3.582 8-8 8z"/><path d="m288.014 320.068h-64c-4.418 0-8-3.582-8-8s3.582-8 8-8h64c4.418 0 8 3.582 8 8s-3.582 8-8 8z"/><path d="m320.014 288.068h-96c-4.418 0-8-3.582-8-8s3.582-8 8-8h96c4.418 0 8 3.582 8 8s-3.582 8-8 8z"/></g><path d="m480.014 200.068v24h-232.6c-13.41 0-25.68-7.33-32.04-19.14l-39.36-73.1v-35.76c0-5.585 5.554-9.397 10.72-7.52l288 104c3.17 1.14 5.28 4.15 5.28 7.52z" fill="#ebb15d"/><path d="m508.826 176.729-50.41-79.217c-3.764-5.914-10.195-9.444-17.204-9.444h-257.198c-6.029 0-9.919 6.452-7.044 11.793l52.491 97.483c3.562 6.614 10.441 10.724 17.954 10.724h244.207c16.081 0 25.802-17.834 17.204-31.339z" fill="#faf0d3"/><path d="m491.624 208.068h-48c16.109 0 25.784-17.869 17.2-31.34l-50.41-79.22c-3.76-5.91-10.19-9.44-17.2-9.44h48c7.01 0 13.44 3.53 17.2 9.44l50.41 79.22c8.589 13.479-1.099 31.34-17.2 31.34z" fill="#f4e1a1"/></g></svg>