<svg id="Layer_1" enable-background="new 0 0 512 512" height="512" viewBox="0 0 512 512" width="512" xmlns="http://www.w3.org/2000/svg"><g><path d="m482.119 250.918-28.069-9.356-24.587-61.469c-4.888-12.219-16.55-20.115-29.711-20.115h-79.752c-4.418 0-8 3.582-8 8v176c0 4.418 3.582 8 8 8h176c4.418 0 8-3.582 8-8v-62.702c0-13.796-8.793-25.996-21.881-30.358z" fill="#f1cc76"/><path d="m504 281.277v62.7c0 4.42-3.58 8-8 8h-32c4.42 0 8-3.58 8-8v-62.7c0-13.8-8.79-26-21.88-30.36l-28.07-9.36-24.59-61.46c-4.89-12.22-16.55-20.12-29.71-20.12h32c13.16 0 24.82 7.9 29.71 20.12l24.59 61.46 28.07 9.36c13.09 4.36 21.88 16.56 21.88 30.36z" fill="#ebb15d"/><path d="m304 95.977h-272c-13.234 0-24 10.766-24 24v224c0 4.418 3.582 8 8 8h304c4.418 0 8-3.582 8-8v-224c0-13.233-10.766-24-24-24z" fill="#edebfd"/><path d="m328 119.977v224c0 4.42-3.58 8-8 8h-48c4.42 0 8-3.58 8-8v-224c0-13.23-10.77-24-24-24h48c13.23 0 24 10.77 24 24z" fill="#d2d2fc"/><path d="m504 335.977h-495c-4.962 0-9 4.038-9 9v15c0 13.234 10.766 24 24 24h464c13.234 0 24-10.766 24-24v-16c0-4.418-3.582-8-8-8z" fill="#d9b3af"/><path d="m512 343.977v16c0 13.23-10.77 24-24 24h-32c13.23 0 24-10.77 24-24v-16c0-4.42-3.58-8-8-8h32c4.42 0 8 3.58 8 8z" fill="#c4928a"/><circle cx="104" cy="359.977" fill="#595965" r="56"/><path d="m160 359.977c0 37.381-36.187 64.407-72 53.67 23.11-6.9 40-28.35 40-53.67s-16.89-46.77-40-53.67c35.806-10.734 72 16.282 72 53.67z" fill="#44454e"/><circle cx="104" cy="359.977" fill="#edebfd" r="24"/><circle cx="408" cy="359.977" fill="#595965" r="56"/><path d="m464 359.977c0 37.381-36.187 64.407-72 53.67 23.11-6.9 40-28.35 40-53.67s-16.89-46.77-40-53.67c35.806-10.734 72 16.282 72 53.67z" fill="#44454e"/><circle cx="408" cy="359.977" fill="#edebfd" r="24"/><path d="m415.589 245.448-16-48c-1.089-3.267-4.146-5.47-7.589-5.47h-40c-4.418 0-8 3.582-8 8v48c0 4.418 3.582 8 8 8h56c5.453-.001 9.316-5.352 7.589-10.53z" fill="#c8effd"/><path d="m408 255.977h-32c5.468 0 9.306-5.361 7.59-10.53l-16-48c-1.09-3.27-4.15-5.47-7.59-5.47h32c3.44 0 6.5 2.2 7.59 5.47l16 48c1.716 5.169-2.122 10.53-7.59 10.53z" fill="#a0e1fd"/><path d="m368 287.977h-16c-4.418 0-8-3.582-8-8s3.582-8 8-8h16c4.418 0 8 3.582 8 8s-3.582 8-8 8z" fill="#edebfd"/><path d="m504 303.977v16h-24c-4.42 0-8-3.58-8-8s3.58-8 8-8z" fill="#f4e1a1"/><g fill="#ebb19c"><path d="m152 199.977h-32c-4.418 0-8-3.582-8-8s3.582-8 8-8h32c4.418 0 8 3.582 8 8s-3.582 8-8 8z"/><path d="m152 231.977h-48c-4.418 0-8-3.582-8-8s3.582-8 8-8h48c4.418 0 8 3.582 8 8s-3.582 8-8 8z"/><path d="m152 263.977h-80c-4.418 0-8-3.582-8-8s3.582-8 8-8h80c4.418 0 8 3.582 8 8s-3.582 8-8 8z"/></g><path d="m432 359.977c0 18.576-20.252 29.96-36 20.77 15.991-9.255 15.98-32.29 0-41.54 15.754-9.193 36 2.199 36 20.77z" fill="#d2d2fc"/><path d="m128 359.977c0 18.576-20.252 29.96-36 20.77 15.991-9.255 15.98-32.29 0-41.54 15.754-9.193 36 2.199 36 20.77z" fill="#d2d2fc"/><path d="m264 159.977h-112c-4.418 0-8 3.582-8 8v112c0 4.418 3.582 8 8 8h112c4.418 0 8-3.582 8-8v-112c0-4.418-3.582-8-8-8z" fill="#ebb19c"/><path d="m272 167.977v112c0 4.42-3.58 8-8 8h-32c4.42 0 8-3.58 8-8v-112c0-4.42-3.58-8-8-8h32c4.42 0 8 3.58 8 8z" fill="#e58d72"/><path d="m224 159.977h-32c-4.418 0-8 3.582-8 8v32c0 4.418 3.582 8 8 8h32c4.418 0 8-3.582 8-8v-32c0-4.418-3.582-8-8-8z" fill="#faf0d3"/><path d="m232 167.977v32c0 4.42-3.58 8-8 8h-24c4.42 0 8-3.58 8-8v-32c0-4.42-3.58-8-8-8h24c4.42 0 8 3.58 8 8z" fill="#f4e1a1"/></g></svg>