<svg id="Layer_1" enable-background="new 0 0 512 512" height="512" viewBox="0 0 512 512" width="512" xmlns="http://www.w3.org/2000/svg"><g><path d="m351.892 454.685-8-48c-.644-3.857-3.98-6.685-7.892-6.685h-160c-3.911 0-7.248 2.827-7.892 6.685l-8 48c-.809 4.868 2.942 9.315 7.892 9.315h176c4.925 0 8.705-4.423 7.892-9.315z" fill="#595965"/><path d="m348.11 432h-184.22l4.22-25.32c.64-3.85 3.98-6.68 7.89-6.68h160c3.91 0 7.25 2.83 7.89 6.68z" fill="#44454e"/><path d="m344 464h-48c4.934 0 8.709-4.448 7.89-9.32l-8-48c-.64-3.85-3.98-6.68-7.89-6.68h48c3.91 0 7.25 2.83 7.89 6.68l8 48c.818 4.866-2.949 9.32-7.89 9.32z" fill="#44454e"/><path d="m504 336h-496c-4.418 0-8 3.582-8 8v40c0 17.645 14.355 32 32 32h448c17.645 0 32-14.355 32-32v-40c0-4.418-3.582-8-8-8z" fill="#595965"/><path d="m362 448h-212c-12.131 0-22 9.869-22 22v18c0 4.418 3.582 8 8 8h240c4.418 0 8-3.582 8-8v-18c0-12.131-9.869-22-22-22z" fill="#595965"/><path d="m256 384c-4.393 0-8-3.557-8-8 0-7.094 8.608-10.683 13.66-5.66 5 5.149 1.445 13.66-5.66 13.66z" fill="#edebfd"/><path d="m512 344v40c0 17.65-14.36 32-32 32h-48c17.64 0 32-14.35 32-32v-40c0-4.42-3.58-8-8-8h48c4.42 0 8 3.58 8 8z" fill="#44454e"/><path d="m384 470v18c0 4.42-3.58 8-8 8h-48c4.42 0 8-3.58 8-8v-18c0-12.13-9.87-22-22-22h48c12.13 0 22 9.87 22 22z" fill="#44454e"/><path d="m480 16h-448c-17.645 0-32 14.355-32 32v296c0 4.418 3.582 8 8 8h496c4.418 0 8-3.582 8-8v-296c0-17.645-14.355-32-32-32z" fill="#edebfd"/><path d="m512 48v296c0 4.42-3.58 8-8 8h-48c4.42 0 8-3.58 8-8v-296c0-17.64-14.36-32-32-32h48c17.64 0 32 14.36 32 32z" fill="#d2d2fc"/><path d="m472 48h-432c-4.418 0-8 3.582-8 8v256c0 4.418 3.582 8 8 8h432c4.418 0 8-3.582 8-8v-256c0-4.418-3.582-8-8-8z" fill="#c8effd"/><path d="m480 56v256c0 4.42-3.58 8-8 8h-48c4.42 0 8-3.58 8-8v-256c0-4.42-3.58-8-8-8h48c4.42 0 8 3.58 8 8z" fill="#a0e1fd"/><g fill="#7acef9"><path d="m408 112h-104c-4.418 0-8-3.582-8-8s3.582-8 8-8h104c4.418 0 8 3.582 8 8s-3.582 8-8 8z"/><path d="m408 152h-104c-4.418 0-8-3.582-8-8s3.582-8 8-8h104c4.418 0 8 3.582 8 8s-3.582 8-8 8z"/><path d="m408 192h-104c-4.418 0-8-3.582-8-8s3.582-8 8-8h104c4.418 0 8 3.582 8 8s-3.582 8-8 8z"/></g><path d="m392 224h-48c-13.233 0-24 10.767-24 24s10.767 24 24 24h48c13.233 0 24-10.767 24-24s-10.767-24-24-24z" fill="#f1cc76"/><path d="m416 248c0 13.23-10.77 24-24 24h-32c13.23 0 24-10.77 24-24s-10.77-24-24-24h32c13.23 0 24 10.77 24 24z" fill="#ebb15d"/><path d="m260.997 137.753-40-32c-1.418-1.135-3.181-1.753-4.997-1.753h-96c-1.816 0-3.579.618-4.997 1.753l-40 32c-2.946 2.356-3.846 6.451-2.158 9.825l16 32c1.78 3.56 5.903 5.269 9.686 4.012l13.469-4.49v76.9c0 4.418 3.582 8 8 8h96c4.418 0 8-3.582 8-8v-76.9l13.47 4.49c3.777 1.257 7.904-.451 9.686-4.012l16-32c1.687-3.374.787-7.469-2.159-9.825z" fill="#e48c9b"/><path d="m208 179.1v76.9c0 4.42-3.58 8-8 8h16c4.42 0 8-3.58 8-8v-73z" fill="#cc5b6f"/><path d="m263.16 147.58-16 32c-1.79 3.56-5.91 5.27-9.69 4.01l-7.34-2.45c.4-.47.74-.99 1.03-1.56l16-32c1.68-3.38.78-7.47-2.16-9.83l-40-32c-1.42-1.13-3.18-1.75-5-1.75h16c1.82 0 3.58.62 5 1.75l40 32c2.94 2.36 3.84 6.45 2.16 9.83z" fill="#cc5b6f"/><path d="m192 104h-48c-4.418 0-8 3.582-8 8v8c0 17.645 14.355 32 32 32s32-14.355 32-32v-8c0-4.418-3.582-8-8-8z" fill="#cc5b6f"/></g></svg>