<?xml version="1.0" encoding="utf-8"?>
<!-- Generator: Adobe Illustrator 25.2.0, SVG Export Plug-In . SVG Version: 6.00 Build 0)  -->
<svg version="1.1" id="Layer_1" xmlns="http://www.w3.org/2000/svg" xmlns:xlink="http://www.w3.org/1999/xlink" x="0px" y="0px"
	 viewBox="0 0 494.5 378.7" style="enable-background:new 0 0 494.5 378.7;" xml:space="preserve">
<style type="text/css">
	.st0{fill:#F86C6B;}
	.st1{opacity:0.25;fill:#5E5E5E;}
	.st2{opacity:0.61;fill:#FFFFFF;}
	.st3{opacity:0.6;fill:#5E5E5E;}
	.st4{fill:#313F5E;}
	.st5{opacity:0.43;fill:#313F5E;}
	.st6{opacity:0.43;}
	.st7{fill:none;stroke:#5A657E;stroke-width:2.6344;stroke-linecap:round;stroke-miterlimit:10;}
	.st8{opacity:0.21;fill:#313F5E;}
	.st9{opacity:0.61;}
	.st10{fill:#FFFFFF;}
	.st11{opacity:0.25;fill:#FCBE99;}
	.st12{fill:#44291C;}
	.st13{opacity:0.3;fill:#44291C;}
	.st14{fill:none;stroke:#44291C;stroke-width:7.5774;stroke-linecap:round;stroke-miterlimit:10;}
	.st15{fill:#5B3725;}
	.st16{fill:none;stroke:#5B3725;stroke-width:7.5774;stroke-linecap:round;stroke-miterlimit:10;}
	.st17{opacity:0.3;fill:#5B3725;}
	.st18{opacity:0.29;fill:#5B3725;}
	.st19{fill:none;stroke:#5B3725;stroke-width:5.9054;stroke-miterlimit:10;}
	.st20{fill:#FFB539;}
	.st21{opacity:0.45;fill:#F75C00;}
	.st22{opacity:0.51;}
	.st23{opacity:0.42;fill:#FFB539;}
</style>
<path class="st0" d="M180.1,61.6c4.7,0,8.5-3.8,8.5-8.5V1.3h-17.1V53C171.6,57.8,175.4,61.6,180.1,61.6z"/>
<path class="st0" d="M118.7,87.7c7.9,0,14.4-6.4,14.4-14.4V0h-28.8v73.3C104.3,81.3,110.8,87.7,118.7,87.7z"/>
<path class="st0" d="M153.5,31.4c2.4,0,4.3-1.9,4.3-4.3V1.3h-8.5v25.9C149.2,29.5,151.1,31.4,153.5,31.4z"/>
<path class="st0" d="M243.2,77.2c-4.7,0-8.5,3.8-8.5,8.5v73.7c0,4.7,3.8,8.5,8.5,8.5c4.7,0,8.5-3.8,8.5-8.5V85.8
	C251.8,81.1,247.9,77.2,243.2,77.2z"/>
<path class="st0" d="M196,106.9c2.4,0,4.3-1.9,4.3-4.3V65.8c0-2.4-1.9-4.3-4.3-4.3s-4.3,1.9-4.3,4.3v36.8
	C191.7,105,193.6,106.9,196,106.9z"/>
<path class="st0" d="M200.3,49.2c6.4,0,11.6,5.1,11.6,11.5l0.1,22.5c0,4.7,3.6,8.8,8.3,8.9c4.8,0.1,8.8-3.7,8.8-8.6V55.4
	c0-6.3,5.1-11.3,11.3-11.3h11.3c6.3,0,11.3,5.1,11.3,11.3h0.3v48.1v102.8c0,2.6,2.1,4.6,4.6,4.6h1.7c2.6,0,4.6,2.1,4.6,4.6v6.7v7.6
	c0,9.4,7.7,17.1,17.1,17.1h0c9.4,0,17.1-7.7,17.1-17.1v-2.5c0-6.8,5.5-12.4,12.4-12.4h6.9c6.8,0,12.4,5.5,12.4,12.4v12.2
	c0,4.1,3.3,7.4,7.4,7.4h19c4.1,0,7.1-3.4,7.2-7.5c0.1-2.5,2.1-4.5,4.6-4.5h0c2.6,0,4.6,2.1,4.6,4.6v14.9v13c0,2.6,2.1,4.6,4.6,4.6h0
	c2.6,0,4.6-2.1,4.6-4.6v-13v-5.8c0-2.4,1.8-4.6,4.2-4.8c2.8-0.3,5.1,1.9,5.1,4.6v6h0v23c0,5.1,4.2,9.3,9.3,9.3h0
	c5.1,0,9.3-4.2,9.3-9.3v-4c0-2.6,2.1-4.6,4.6-4.6h9.3c2.6,0,4.6,2.1,4.6,4.6v4c0,5.1,4.2,9.3,9.3,9.3l0,0c5.1,0,9.3-4.2,9.3-9.3
	v-6.6c0-5,3.7-9.3,8.7-9.6c5.4-0.4,9.9,3.9,9.9,9.3v23.1c0,5,3.7,9.3,8.7,9.6c5.4,0.4,9.9-3.9,9.9-9.3V1.3H263.3h-34.2H212h-17.1
	v42.3C194.9,46.6,197.3,49.2,200.3,49.2z"/>
<path class="st1" d="M378.2,125.2L378.2,125.2c-9.8,0-18.7,4.1-25.1,10.7c-2.8,2.9-7.8,0.9-7.8-3.2v0c0-24.2-19.6-43.8-43.8-43.8
	l0,0c-24.2,0-43.8,19.6-43.8,43.8v53.7c0-14.8-12.3-26.8-27.2-26.2c-5.1,0.2-9.8,1.9-13.7,4.6c-3.8,2.7-9.1,0.1-9.1-4.6v-0.2
	c0-19.2-15.6-34.8-34.8-34.8l0,0c-9.8,0-18.7,4.1-25.1,10.7c-2.8,2.9-7.8,0.9-7.8-3.2v0c0-24.2-19.6-43.8-43.8-43.8h0
	c-24.2,0-43.8,19.6-43.8,43.8v53.7c0-14.8-12.3-26.8-27.2-26.2C11.1,160.7,0,172.8,0,187.1v133.1C0,333.3,10.7,344,23.8,344h28.7
	h85.6h2h65.3h2.5h50h85.6h2H381c17.7,0,32.1-14.4,32.1-32.1V160.1C413,140.8,397.4,125.2,378.2,125.2z"/>
<path class="st2" d="M479.5,298.2L479.5,298.2c-0.9,0-1.6-1.5-1.6-3.3l1.2-26.1l2.1,26.1C481.1,296.7,480.4,298.2,479.5,298.2z"/>
<path class="st2" d="M237.4,162.7L237.4,162.7c-0.9,0-1.6-1.5-1.6-3.3l1.2-26.1l2.1,26.1C239.1,161.3,238.3,162.7,237.4,162.7z"/>
<path class="st2" d="M406.4,279.8L406.4,279.8c-0.9,0-1.6-1.5-1.6-3.3l1.2-26.1l2.1,26.1C408,278.3,407.3,279.8,406.4,279.8z"/>
<path class="st2" d="M265.7,205.3L265.7,205.3c-0.8,0-1.4-1.2-1.4-2.7l1-21.8l1.7,21.8C267.1,204,266.5,205.3,265.7,205.3z"/>
<path class="st2" d="M217.2,85.3L217.2,85.3c-0.9,0-1.6-1.5-1.6-3.3l1.2-26.1l2.1,26.1C218.8,83.9,218.1,85.3,217.2,85.3z"/>
<path class="st0" d="M399.3,357.1c-2.2-0.3-4.5-0.1-6.7-0.1c-7,0-14,0-21,0c-14,0-28,0-42.1,0c0.1-0.3,0.4-5.9-0.7-5.2
	c1.1-0.6,1.8-1.8,1.6-3.2c-0.2-1.6-1.7-2.8-3.3-2.8h-80.1c-1.3,0-2.6,0.6-3.3,1.8c-0.6,0.9-0.5,1.7-0.3,2.4
	c-8.2,0-16.5-0.5-24.7-0.6c-6.7-0.1-15.3-1.1-21.6,1.3c-5.1,2-4.7,9.4,1.3,9.4H266c2.3,0,4.1,1.9,4.1,4.3c0,0,0,0,0,0v6.8
	c0,4.1,3.3,7.4,7.4,7.4c20.3,0,40.7,0,61,0c11.9,0,23.8,0,35.7,0c4.6,0,9.3,0,13.9,0c4.5,0,11.5,1.3,15.3-1.3
	C410.2,372.4,407.6,358.3,399.3,357.1z"/>
<polygon class="st3" points="235.9,363.9 125.1,363.2 137.2,351 223.1,351 "/>
<path class="st4" d="M136.3,124.4l0.9,67.4c0,1.4,12,4.2,26.8,4.2c14.8,0,26.8-2.9,26.8-4.2l0.9-67.4H136.3z"/>
<path class="st4" d="M191.6,128h-55.5c-1,0-1.8-0.8-1.8-1.8l0,0c0-1,0.8-1.8,1.8-1.8h55.5c1,0,1.8,0.8,1.8,1.8l0,0
	C193.4,127.2,192.6,128,191.6,128z"/>
<path class="st5" d="M155.6,181c-6.8,2.8-13.4,2.1-18.4,0.5v10.3c0,1.4,12,4.2,26.8,4.2c14.8,0,26.8-2.9,26.8-4.2l0.7-59.5
	C187.6,150.3,177.8,171.8,155.6,181z"/>
<path class="st0" d="M156.9,124.1L156.9,124.1l-13.2,0H143l0,0c-1.3,0-2.4,1.1-2.4,2.4v5.7c0,0.8,0.5,1.5,1.3,1.6
	c1,0.2,1.8-0.6,1.8-1.6v-1.2c0-3.1,2.7-5.5,5.7-5.1c0.1,0,0.2,0,0.3,0c4.1,0.6,7.2,4.3,7.2,8.4c0,2.4,0,5.1,0,6.8
	c0,1.8,1.4,3.4,3.2,3.5c1.9,0.1,3.5-1.4,3.5-3.3l0-10.5c0-0.8,0.5-1.5,1.2-1.8c0.2-0.1,0.5-0.1,0.7-0.1c0.5,0,1,0.2,1.4,0.4
	c0.5,0.3,0.7,0.9,0.7,1.5v15.8c0,1,0.7,1.9,1.7,2.2l0,0c1.3,0.4,2.3,1.6,2.3,3c0,2.3,0,5.6,0,7.8c0,2,1.5,3.9,3.5,4.1
	c2.3,0.2,4.3-1.6,4.3-3.9v-31c0-1,0.8-1.7,1.7-1.7l0,0c0.1,0,0.3,0,0.4,0c0.9,0.1,1.5,0.9,1.5,1.8c0,2.4,0,8.5,0,11.5
	c0,1.8,1.4,3.4,3.2,3.5c1.9,0.1,3.5-1.4,3.5-3.3V127c0-1.6-1.3-2.9-2.9-2.9L156.9,124.1z"/>
<path class="st2" d="M173.7,161.7L173.7,161.7c-0.7,0-1.2-0.6-1.2-1.2l0.7-15.7l1.7,15.7C175,161.2,174.4,161.7,173.7,161.7z"/>
<path class="st2" d="M184.4,141.9L184.4,141.9c-0.3,0-0.6-0.3-0.6-0.6l0.4-7.9l0.9,7.9C185,141.6,184.8,141.9,184.4,141.9z"/>
<path class="st2" d="M168.8,148.2L168.8,148.2c-0.4,0-0.7-0.3-0.7-0.7l0.4-8.7l1,8.7C169.5,147.9,169.2,148.2,168.8,148.2z"/>
<path class="st2" d="M158.2,142.8L158.2,142.8c-0.4,0-0.7-0.3-0.7-0.7l0.4-8.7l1,8.7C158.9,142.4,158.6,142.8,158.2,142.8z"/>
<path class="st2" d="M141.1,132.7L141.1,132.7c-0.2,0-0.3-0.2-0.3-0.3l0.2-4.3l0.5,4.3C141.4,132.5,141.3,132.7,141.1,132.7z"/>
<g class="st6">
	<path class="st4" d="M190.7,168.6c-1.2,2.5-2.7,4.8-4.5,6.8c-4.6,5.1-10.7,7.9-18.1,8.2c-11,0.4-19.7-2.6-25.8-9.1
		c-2.1-2.2-3.7-4.6-5.1-7.2v5.1c0.9,1.4,2,2.7,3.2,3.9c6.3,6.6,14.9,10,25.7,10c0.7,0,1.4,0,2.2,0c8.2-0.3,14.9-3.4,20-9.1
		c0.9-1,1.8-2.2,2.5-3.3V168.6z"/>
	<path class="st4" d="M189.5,137.4c0,0.7,0.5,1.2,1.2,1.3v-2.6C190.1,136.1,189.5,136.7,189.5,137.4z"/>
	<path class="st4" d="M137.2,138.4c0.3-0.2,0.5-0.6,0.5-1c0-0.4-0.2-0.8-0.5-1V138.4z"/>
</g>
<path class="st7" d="M135.5,134.9h-5c0,0-4.7,49.2,37.7,47.5c32.9-1.3,29.2-47.5,29.2-47.5h-4.6"/>
<polygon class="st8" points="191.6,128.7 191.6,127.8 136.3,127.8 136.3,128.7 "/>
<g class="st9">
	<path class="st10" d="M142.7,124.7l13.1,0.3l-13.1,0.7c-0.3,0-0.5-0.2-0.5-0.4C142.2,124.9,142.4,124.7,142.7,124.7
		C142.6,124.7,142.7,124.7,142.7,124.7z"/>
</g>
<path class="st11" d="M140.6,126.5v1.4h4.3c1.1-1.4,2.8-2.2,4.6-1.9c0.1,0,0.2,0,0.3,0c1.6,0.2,3,0.9,4.2,1.9h25.9
	c0.3-0.5,0.8-0.8,1.4-0.8c0.1,0,0.3,0,0.4,0c0.5,0.1,0.9,0.4,1.1,0.7h7v-1c0-1.1-0.6-2.1-1.6-2.6h-46.4
	C141.1,124.8,140.6,125.6,140.6,126.5z"/>
<g>
	<g>
		<path class="st12" d="M229.7,257.9h-99c-1.9,0-3.4-1.5-3.4-3.4v-0.2c0-1.9,1.5-3.4,3.4-3.4h99c1.9,0,3.4,1.5,3.4,3.4v0.2
			C233,256.4,231.5,257.9,229.7,257.9z"/>
		<path class="st13" d="M229.8,255.6h-99.2c-1.4,0-2.6-1-3.1-2.3c-0.1,0.4-0.2,0.8-0.2,1.2c0,1.9,1.5,3.5,3.3,3.5h99.2
			c1.8,0,3.3-1.6,3.3-3.5c0-0.4-0.1-0.8-0.2-1.2C232.4,254.6,231.2,255.6,229.8,255.6z"/>
	</g>
	<g>
		<path class="st12" d="M227.7,315.4h-96.9c-1.8,0-3.3-1.5-3.3-3.3v-0.3c0-1.8,1.5-3.3,3.3-3.3h96.9c1.8,0,3.3,1.5,3.3,3.3v0.3
			C231,313.9,229.6,315.4,227.7,315.4z"/>
		<path class="st13" d="M227.9,313h-97.2c-1.4,0-2.5-1-3-2.3c-0.1,0.4-0.2,0.8-0.2,1.2c0,1.9,1.4,3.5,3.2,3.5h97.2
			c1.8,0,3.2-1.6,3.2-3.5c0-0.4-0.1-0.8-0.2-1.2C230.4,312.1,229.2,313,227.9,313z"/>
	</g>
	<line class="st14" x1="206" y1="199.5" x2="223.1" y2="351"/>
	<line class="st14" x1="137.2" y1="351" x2="154.3" y2="199.5"/>
	<path class="st15" d="M231.5,206.5H129c-2.8,0-5-2.2-5-5v-3.8c0-2.8,2.2-5,5-5h102.5c2.8,0,5,2.2,5,5v3.8
		C236.5,204.2,234.3,206.5,231.5,206.5z"/>
	<line class="st16" x1="234.6" y1="360.5" x2="217.5" y2="199.5"/>
	<line class="st16" x1="125.3" y1="360.5" x2="142.5" y2="199.5"/>
	<g>
		<path class="st15" d="M236.5,326.9c0-1.1-0.8-2-1.9-2.1l0.4,4.2C235.9,328.7,236.5,327.9,236.5,326.9z"/>
		<path class="st15" d="M227,324.8h7.3c0.1,0,0.2,0,0.3,0l-6.4-60h-7.6L227,324.8z"/>
		<polygon class="st15" points="220.2,260.5 227.8,260.5 222.8,213.4 215.2,213.4 		"/>
		<path class="st15" d="M238.4,360.1l-3.3-31.1c-0.2,0.1-0.5,0.1-0.7,0.1h-6.9l3.4,31.8c0.2,1.9,1.8,3.4,3.8,3.4c0.1,0,0.3,0,0.4,0
			C237.1,364,238.6,362.1,238.4,360.1z"/>
		<polygon class="st15" points="222.8,213.4 222,206.5 214.4,206.5 215.2,213.4 		"/>
		<polygon class="st15" points="211.4,213.4 210.6,206.5 203,206.5 203.7,213.4 		"/>
		<polygon class="st15" points="220.6,264.8 228.2,264.8 227.8,260.5 220.2,260.5 		"/>
		<path class="st15" d="M235.1,329l-0.4-4.2c-0.1,0-0.2,0-0.3,0H227l0.5,4.3h6.9C234.6,329.1,234.9,329,235.1,329z"/>
		<path class="st15" d="M146.2,199.9c0.2-2.1-1.3-3.9-3.4-4.2c-2.1-0.2-3.9,1.3-4.2,3.4l-0.8,7.3h7.6L146.2,199.9z"/>
		<path class="st15" d="M132.9,324.8l6.4-60h-7.6l-6.4,60.2c0.3-0.1,0.5-0.2,0.8-0.2H132.9z"/>
		<polygon class="st15" points="144.8,213.4 137.2,213.4 132.2,260.5 139.8,260.5 		"/>
		<path class="st15" d="M124.9,328.7l-3.3,31.4c-0.2,2.1,1.3,3.9,3.4,4.2c0.1,0,0.3,0,0.4,0c1.9,0,3.6-1.4,3.8-3.4l3.4-31.8h-6.3
			C125.7,329.1,125.3,328.9,124.9,328.7z"/>
		<polygon class="st15" points="145.5,206.5 137.9,206.5 137.2,213.4 144.8,213.4 		"/>
		<polygon class="st15" points="157.3,206.5 149.7,206.5 148.9,213.4 156.6,213.4 		"/>
		<polygon class="st15" points="139.8,260.5 132.2,260.5 131.7,264.8 139.3,264.8 		"/>
		<path class="st15" d="M126.2,324.8c-0.3,0-0.6,0.1-0.8,0.2l-0.4,3.7c0.4,0.3,0.8,0.4,1.2,0.4h6.3l0.5-4.3H126.2z"/>
	</g>
	<g>
		<path class="st15" d="M233,261.7H127.5c-1.9,0-3.5-1.6-3.5-3.5l0,0c0-1.9,1.6-3.5,3.5-3.5H233c1.9,0,3.5,1.6,3.5,3.5l0,0
			C236.5,260.2,235,261.7,233,261.7z"/>
		<path class="st17" d="M233,259.4H127.5c-1.5,0-2.8-1-3.2-2.3c-0.1,0.4-0.2,0.8-0.2,1.2c0,1.9,1.6,3.5,3.5,3.5H233
			c1.9,0,3.5-1.6,3.5-3.5c0-0.4-0.1-0.8-0.2-1.2C235.8,258.4,234.5,259.4,233,259.4z"/>
	</g>
	<path class="st18" d="M231.5,202.7H129c-2.8,0-5-2.2-5-5v3.8c0,2.8,2.2,5,5,5h102.5c2.8,0,5-2.2,5-5v-3.8
		C236.5,200.4,234.3,202.7,231.5,202.7z"/>
	<g>
		<path class="st15" d="M233,326H127.5c-1.9,0-3.5-1.6-3.5-3.5l0,0c0-1.9,1.6-3.5,3.5-3.5H233c1.9,0,3.5,1.6,3.5,3.5l0,0
			C236.5,324.4,235,326,233,326z"/>
		<path class="st17" d="M236.3,321.3c-0.5,1.3-1.8,2.2-3.2,2.2H127.5c-1.5,0-2.7-0.9-3.2-2.2c-0.2,0.4-0.2,0.8-0.2,1.3
			c0,1.9,1.6,3.5,3.5,3.5H233c1.9,0,3.5-1.6,3.5-3.5C236.5,322.1,236.4,321.7,236.3,321.3z"/>
	</g>
</g>
<path class="st19" d="M280.1,344.9l-17.2,0c-4,0-6.8-3.3-6.3-7.3l1.6-13.1c0.5-4.1,4.1-7.3,8.1-7.3l29,0c4,0,7.6-3.3,8.1-7.3
	l15.3-124"/>
<path class="st20" d="M327.7,333.9c0,0-57.1-0.1-57.2-0.1c-2.1-0.3-4.3,4.3-5,10.2c-0.5,4.1-0.1,7.7,0.8,9.6
	c0.3,0.9,0.9,1.4,1.9,1.5l57.4-0.1c1.8-0.2,3.2-2.6,3.5-5.3l0.3-10.7C329.7,336.2,330.4,333.9,327.7,333.9z"/>
<path class="st0" d="M327.7,333.9c0,0-15.9,0-30.9-0.1c-1.7,0-3,1.3-3,3l0,0c0,1.7-1.3,3-3,3h-24.5c-0.3,1.2-0.6,2.6-0.8,4.1
	c-0.1,0.9-0.2,1.9-0.2,2.8h28.2c2.9,0,5.5,1.5,7,3.9c1.7,2.7,4.6,4.4,7.8,4.4l17.3,0c1.8-0.2,3.2-2.6,3.5-5.3l0.3-10.7
	C329.7,336.2,330.4,333.9,327.7,333.9z"/>
<path class="st11" d="M323.7,350.2l-53.1,0c-2.7,0-4.6-2.2-4.3-5l-0.6,4.8c-0.3,2.7,1.6,5,4.3,5l53.1,0c2.7,0,5.2-2.2,5.5-5l0.6-4.8
	C328.9,348,326.4,350.2,323.7,350.2z"/>
<path class="st21" d="M265.5,347.1c0.7-5.9,1.1-10.2,5-10.2c0.1,0,57.2,0.1,57.2,0.1c1,0,1.6,0.3,1.8,0.9c0.3-2.3,0.6-4.1-1.8-4.1
	c0,0-57.1-0.1-57.2-0.1c-2.1-0.3-4.3,4.3-5,10.2c-0.2,1.8-0.3,3.5-0.2,5C265.3,348.4,265.4,347.8,265.5,347.1z"/>
<g>
	<path class="st20" d="M314.2,228.5l-1.4,0c-3,0-5.1-2.5-4.8-5.5l5-40.2c0.4-3.1,3.1-5.5,6.1-5.5l1.4,0c3,0,5.1,2.5,4.8,5.5l-5,40.2
		C319.9,226,317.2,228.5,314.2,228.5z"/>
	<g class="st22">
		<path class="st23" d="M322.5,177.7l-4.8,39c-0.4,3.1-3.1,5.5-6.1,5.5l-1.4,0c-0.7,0-1.4-0.2-2-0.4l-0.1,1.2
			c-0.4,3.1,1.8,5.5,4.8,5.5l1.4,0c3,0,5.7-2.5,6.1-5.5l5-40.2C325.5,180.5,324.4,178.5,322.5,177.7z"/>
	</g>
</g>
<path class="st0" d="M330.6,344.9c-0.7,5.9-3,10.4-5,10.2c-2.1-0.3-3.1-5.2-2.4-11.1c0.7-5.9,3-10.4,5-10.2
	C330.3,334.1,331.3,339,330.6,344.9z"/>
<path class="st15" d="M328.7,344.7c-0.2,1.9-1.2,3.4-2.1,3.2c-0.9-0.1-1.5-1.7-1.2-3.7c0.2-1.9,1.2-3.4,2.1-3.2
	C328.4,341.2,328.9,342.8,328.7,344.7z"/>
</svg>
