<?xml version="1.0" encoding="utf-8"?>
<!-- Generator: Adobe Illustrator 25.2.0, SVG Export Plug-In . SVG Version: 6.00 Build 0)  -->
<svg version="1.1" id="Capa_1" xmlns="http://www.w3.org/2000/svg" xmlns:xlink="http://www.w3.org/1999/xlink" x="0px" y="0px"
	 viewBox="0 0 512 512" style="enable-background:new 0 0 512 512;" xml:space="preserve">
<style type="text/css">
	.st0{fill:#FFFFFF;}
</style>
<g>
	<g>
		<g>
			<path class="st0" d="M256,512c141.4,0,256-114.6,256-256S397.4,0,256,0S0,114.6,0,256S114.6,512,256,512z M256,32
				c123.7,0,224,100.3,224,224S379.7,480,256,480S32,379.7,32,256S132.3,32,256,32z"/>
			<path class="st0" d="M256,198.6l116.6,116.8l22.7-22.7l-128-128c-6.2-6.2-16.3-6.2-22.6,0l-128,128l22.6,22.6L256,198.6z"/>
		</g>
	</g>
</g>
</svg>
